<svg xmlns="http://www.w3.org/2000/svg" xmlns:xlink="http://www.w3.org/1999/xlink" width="100" zoomAndPan="magnify" viewBox="0 0 75 74.999997" height="100" preserveAspectRatio="xMidYMid meet" version="1.0"><defs><clipPath id="6c5e36c7c9"><path d="M 9.375 2.339844 L 65.625 2.339844 L 65.625 72.839844 L 9.375 72.839844 Z M 9.375 2.339844 " clip-rule="nonzero"/></clipPath></defs><g clip-path="url(#6c5e36c7c9)"><path fill="#ffe1e7" d="M 30.542969 21.308594 L 33.535156 14.382812 L 32.035156 7.773438 L 37.804688 3.667969 L 46.035156 2.339844 L 47.222656 11.402344 L 46.269531 17.925781 L 46.867188 23.417969 L 54.789062 24.433594 L 57.421875 30.203125 L 57.511719 36.558594 L 58.445312 41.335938 L 63.5 43.9375 L 65.441406 53.523438 L 65.609375 60.949219 L 63.851562 66.46875 L 58.765625 71.300781 L 42.429688 72.839844 L 25.390625 69.613281 L 14.765625 70.625 L 9.386719 64.398438 L 12.511719 54.214844 L 13.542969 42.726562 L 19.632812 40.03125 L 19.410156 31.0625 L 21.566406 24.1875 L 28.527344 23.902344 Z M 30.542969 21.308594 " fill-opacity="1" fill-rule="nonzero"/></g><path fill="#ac91c6" d="M 15.140625 65.785156 C 15.242188 54.238281 15.753906 49.144531 16.464844 46.839844 C 16.851562 45.585938 17.34375 44.96875 17.8125 44.605469 C 18.1875 44.316406 18.570312 44.171875 18.976562 44.074219 C 20.371094 43.738281 43.226562 42.777344 53.5 43.558594 C 55.394531 43.703125 56.878906 43.914062 57.769531 44.179688 C 58.367188 44.359375 58.773438 44.601562 59.003906 44.824219 C 59.28125 45.089844 59.558594 45.539062 59.769531 46.171875 C 60.097656 47.164062 60.324219 48.753906 60.453125 50.613281 C 60.863281 56.457031 60.425781 65.121094 60.425781 65.121094 C 60.394531 65.707031 59.945312 66.1875 59.363281 66.253906 C 59.363281 66.253906 47.128906 67.625 41.648438 67.582031 C 34.28125 67.519531 28.851562 67.632812 16.277344 66.992188 C 15.636719 66.960938 15.132812 66.425781 15.140625 65.785156 Z M 57.378906 46.59375 C 57.292969 46.5625 57 46.453125 56.757812 46.394531 C 55.949219 46.207031 54.769531 46.0625 53.320312 45.953125 C 43.265625 45.191406 20.898438 46.082031 19.53125 46.410156 C 19.199219 46.488281 19.007812 46.730469 18.753906 47.546875 C 18.09375 49.691406 17.664062 54.335938 17.546875 64.652344 C 29.261719 65.222656 34.558594 65.121094 41.667969 65.179688 C 46.109375 65.214844 55.0625 64.300781 58.078125 63.976562 C 58.179688 61.550781 58.378906 55.304688 58.0625 50.78125 C 57.964844 49.378906 57.820312 48.152344 57.597656 47.28125 C 57.519531 46.976562 57.476562 46.730469 57.378906 46.59375 Z M 57.378906 46.59375 " fill-opacity="1" fill-rule="evenodd"/><path fill="#ac91c6" d="M 26.367188 29.6875 C 26.328125 29.761719 26.257812 29.902344 26.21875 30.015625 C 26.097656 30.382812 26.003906 30.855469 25.929688 31.429688 C 25.609375 33.902344 25.632812 38.035156 25.574219 43.710938 C 25.570312 44.375 25.027344 44.90625 24.367188 44.902344 C 23.703125 44.894531 23.171875 44.351562 23.179688 43.6875 C 23.246094 36.859375 23.234375 32.199219 23.769531 29.894531 C 24.140625 28.285156 24.914062 27.546875 25.710938 27.371094 C 31.257812 26.15625 40.863281 26.195312 46.78125 26.6875 C 49.519531 26.914062 51.515625 27.285156 52.132812 27.617188 C 53.023438 28.089844 53.730469 29.308594 54.039062 31.132812 C 54.578125 34.351562 54.140625 39.726562 53.644531 44.34375 C 53.570312 45.003906 52.980469 45.480469 52.324219 45.410156 C 51.664062 45.335938 51.191406 44.746094 51.261719 44.085938 C 51.667969 40.300781 52.058594 35.980469 51.832031 32.886719 C 51.761719 31.949219 51.640625 31.132812 51.433594 30.503906 C 51.316406 30.148438 51.226562 29.851562 51.007812 29.734375 C 50.5 29.464844 48.839844 29.265625 46.585938 29.078125 C 40.914062 28.609375 31.746094 28.542969 26.367188 29.6875 Z M 26.367188 29.6875 " fill-opacity="1" fill-rule="evenodd"/><path fill="#ac91c6" d="M 16.476562 51.132812 C 16.078125 50.605469 16.183594 49.851562 16.710938 49.449219 C 17.238281 49.050781 17.988281 49.15625 18.386719 49.683594 C 19.140625 50.6875 19.773438 51.222656 20.410156 51.375 C 20.796875 51.464844 21.164062 51.390625 21.53125 51.253906 C 22.0625 51.054688 22.585938 50.734375 23.128906 50.398438 C 25.515625 48.933594 28.195312 47.261719 32.207031 49.824219 C 34.128906 51.050781 35.484375 51.46875 36.605469 51.382812 C 37.707031 51.296875 38.539062 50.738281 39.425781 50.195312 C 41.015625 49.222656 42.707031 48.246094 45.390625 48.511719 C 46.222656 48.597656 47.277344 49.148438 48.53125 49.746094 C 49.65625 50.285156 51 50.855469 52.59375 50.78125 C 54.199219 50.710938 56.027344 49.972656 58.132812 48.03125 C 58.621094 47.585938 59.378906 47.617188 59.828125 48.105469 C 60.273438 48.59375 60.242188 49.355469 59.753906 49.804688 C 57.089844 52.253906 54.730469 53.089844 52.703125 53.183594 C 50.667969 53.273438 48.933594 52.605469 47.496094 51.914062 C 46.550781 51.460938 45.785156 50.964844 45.152344 50.902344 C 42.519531 50.640625 41.148438 52.042969 39.570312 52.894531 C 37.527344 53.996094 35.242188 54.609375 30.921875 51.851562 C 28.023438 50 26.105469 51.386719 24.382812 52.445312 C 22.855469 53.386719 21.402344 54.082031 19.855469 53.710938 C 18.824219 53.464844 17.695312 52.75 16.476562 51.132812 Z M 16.476562 51.132812 " fill-opacity="1" fill-rule="evenodd"/><path fill="#ac91c6" d="M 24.292969 34.195312 C 23.722656 33.855469 23.539062 33.117188 23.882812 32.550781 C 24.222656 31.980469 24.957031 31.796875 25.523438 32.136719 C 26.417969 32.675781 27.078125 33.089844 27.628906 33.371094 C 27.996094 33.5625 28.28125 33.691406 28.570312 33.699219 C 28.835938 33.707031 29.097656 33.601562 29.429688 33.433594 C 29.957031 33.167969 30.585938 32.757812 31.433594 32.199219 C 32.410156 31.558594 33.277344 31.304688 34.054688 31.269531 C 35.21875 31.214844 36.226562 31.664062 37.1875 32.304688 C 38.703125 33.3125 40.070312 35.09375 42.769531 33.351562 C 44.390625 32.300781 45.34375 31.917969 46.226562 31.945312 C 47.097656 31.972656 47.972656 32.417969 49.457031 33.375 C 50.039062 33.75 50.640625 33.640625 51.113281 33.457031 C 51.71875 33.21875 52.164062 32.835938 52.265625 32.75 C 52.769531 32.320312 53.527344 32.386719 53.953125 32.890625 C 54.382812 33.394531 54.320312 34.15625 53.816406 34.582031 C 53.65625 34.71875 52.945312 35.316406 51.984375 35.695312 C 50.886719 36.121094 49.503906 36.261719 48.160156 35.394531 C 47.207031 34.78125 46.710938 34.363281 46.152344 34.347656 C 45.601562 34.328125 45.078125 34.71875 44.066406 35.371094 C 42.703125 36.25 41.546875 36.539062 40.542969 36.515625 C 39.070312 36.480469 37.878906 35.75 36.753906 34.9375 C 35.585938 34.09375 34.519531 33.050781 32.746094 34.210938 C 30.625 35.597656 29.542969 36.132812 28.5 36.101562 C 27.480469 36.070312 26.410156 35.472656 24.292969 34.195312 Z M 24.292969 34.195312 " fill-opacity="1" fill-rule="evenodd"/><path fill="#ac91c6" d="M 42.550781 17.820312 C 42.5625 18.527344 42.578125 21.535156 41.96875 27.472656 C 41.902344 28.132812 41.3125 28.613281 40.652344 28.542969 C 39.996094 28.476562 39.515625 27.886719 39.585938 27.226562 C 40.039062 22.820312 40.140625 20.089844 40.15625 18.75 C 40.003906 18.742188 39.832031 18.734375 39.640625 18.726562 C 39.375 21.808594 38.882812 24.417969 38.570312 27.257812 C 38.496094 27.914062 37.90625 28.390625 37.25 28.320312 C 36.589844 28.246094 36.117188 27.652344 36.1875 26.992188 C 36.535156 23.84375 37.113281 20.976562 37.339844 17.417969 C 37.378906 16.773438 37.917969 16.277344 38.558594 16.292969 C 40.558594 16.332031 40.886719 16.351562 41.515625 16.464844 C 41.828125 16.519531 42.15625 16.734375 42.332031 16.960938 C 42.503906 17.1875 42.550781 17.820312 42.550781 17.820312 Z M 42.550781 17.820312 " fill-opacity="1" fill-rule="evenodd"/><path fill="#ac91c6" d="M 39.527344 14.996094 C 37.183594 14.179688 36.847656 10.789062 39.019531 9.609375 C 39.789062 9.1875 39.882812 8.835938 40.089844 8.355469 C 40.246094 7.996094 40.4375 7.59375 40.761719 7.117188 C 41.015625 6.742188 41.457031 6.546875 41.902344 6.601562 C 42.347656 6.660156 42.726562 6.964844 42.878906 7.386719 C 43 7.730469 43.527344 8.921875 43.703125 10.222656 C 43.84375 11.28125 43.746094 12.394531 43.214844 13.316406 C 42.804688 14.019531 41.578125 15.710938 39.527344 14.996094 Z M 41.359375 10.859375 C 41.082031 11.140625 40.703125 11.421875 40.160156 11.71875 C 39.75 11.941406 39.871094 12.574219 40.316406 12.730469 C 40.53125 12.804688 40.6875 12.695312 40.796875 12.585938 C 40.964844 12.417969 41.074219 12.222656 41.144531 12.109375 C 41.359375 11.734375 41.394531 11.292969 41.359375 10.859375 Z M 41.359375 10.859375 " fill-opacity="1" fill-rule="evenodd"/></svg>